<svg xmlns="http://www.w3.org/2000/svg" width="1000" height="1000" viewBox="0 0 1000 1000" version="1.1"><path d="M 188 306.255 L 188 424.510 226 462.500 L 264 500.490 226 538.500 L 188 576.510 188 694.755 L 188 813 306.255 813 L 424.510 813 462.500 775 L 500.490 737 538.500 775 L 576.510 813 694.755 813 L 813 813 813 694.745 L 813 576.490 775 538.500 L 737 500.510 775 462.500 L 813 424.490 813 306.245 L 813 188 694.745 188 L 576.490 188 538.500 226 L 500.510 264 462.500 226 L 424.490 188 306.245 188 L 188 188 188 306.255 M 222.667 222.667 C 222.575 222.758, 222.617 264.684, 222.760 315.834 L 223.020 408.835 268.510 454.308 C 293.530 479.318, 314 500.140, 314 500.579 C 314 501.018, 293.637 521.648, 268.750 546.425 L 223.500 591.473 223 684.820 C 222.725 736.161, 222.575 778.242, 222.667 778.334 C 222.758 778.425, 264.659 778.383, 315.779 778.240 L 408.725 777.980 454.275 732.490 C 479.327 707.470, 500.139 687, 500.522 687 C 500.905 687, 521.682 707.470, 546.692 732.490 L 592.165 777.980 685.166 778.240 C 736.316 778.383, 778.242 778.425, 778.333 778.333 C 778.425 778.242, 778.383 736.307, 778.240 685.145 L 777.980 592.122 732.490 546.725 C 707.470 521.756, 687 500.955, 687 500.500 C 687 500.045, 707.470 479.244, 732.490 454.275 L 777.980 408.878 778.240 315.855 C 778.383 264.693, 778.425 222.758, 778.333 222.667 C 778.242 222.575, 736.353 222.617, 685.247 222.760 L 592.326 223.020 546.660 268.510 C 521.543 293.530, 500.720 314, 500.388 314 C 500.055 314, 479.299 293.530, 454.264 268.510 L 408.746 223.020 315.789 222.760 C 264.663 222.617, 222.758 222.575, 222.667 222.667" stroke="none" fill="#8f9cd6" fill-rule="evenodd"/><path d="M 478 399.937 C 438.895 409.091, 408.813 439.343, 399.877 478.500 C 397.360 489.528, 397.360 511.472, 399.877 522.500 C 408.859 561.862, 439.138 592.141, 478.500 601.123 C 489.528 603.640, 511.472 603.640, 522.500 601.123 C 561.893 592.134, 592.134 561.893, 601.123 522.500 C 603.640 511.472, 603.640 489.528, 601.123 478.500 C 592.141 439.138, 561.862 408.859, 522.500 399.877 C 511.707 397.414, 488.645 397.445, 478 399.937" stroke="none" fill="#b84ebe" fill-rule="evenodd"/></svg>