<svg xmlns="http://www.w3.org/2000/svg" width="1000" height="1000" viewBox="0 0 1000 1000" version="1.1"><path d="M 188 305.280 L 188 422.561 226.500 461.013 C 247.675 482.162, 265 499.931, 265 500.500 C 265 501.069, 247.675 518.838, 226.500 539.987 L 188 578.439 188 695.720 L 188 813 305.660 813 L 423.319 813 461.417 774.500 C 482.370 753.325, 499.852 736, 500.266 736 C 500.681 736, 518.304 753.325, 539.429 774.500 L 577.839 813 695.419 813 L 813 813 813 695.745 L 813 578.490 774.500 540 C 753.325 518.830, 736 501.050, 736 500.487 C 736 499.925, 753.325 482.162, 774.500 461.013 L 813 422.561 813 305.280 L 813 188 695.399 188 L 577.798 188 539.429 226.500 C 518.326 247.675, 500.709 265.002, 500.280 265.005 C 499.851 265.007, 482.363 247.682, 461.418 226.505 L 423.335 188 305.668 188 L 188 188 188 305.280 M 222 315.754 L 222 409.508 267.500 455 L 313 500.492 267.500 546 L 222 591.508 222 685.254 L 222 779 315.754 779 L 409.508 779 454.500 734 C 479.245 709.250, 499.945 689, 500.500 689 C 501.055 689, 521.755 709.250, 546.500 734 L 591.492 779 685.246 779 L 779 779 779 685.246 L 779 591.492 733.500 546 L 688 500.508 733.500 455 L 779 409.492 779 315.746 L 779 222 685.246 222 L 591.492 222 546.500 267 C 521.755 291.750, 501.055 312, 500.500 312 C 499.945 312, 479.245 291.750, 454.500 267 L 409.508 222 315.754 222 L 222 222 222 315.754" stroke="none" fill="#8f9cd6" fill-rule="evenodd"/><path d="M 426 239.500 C 435.613 249.125, 443.704 257, 443.979 257 C 444.254 257, 436.613 249.125, 427 239.500 C 417.387 229.875, 409.296 222, 409.021 222 C 408.746 222, 416.387 229.875, 426 239.500 M 584 229.500 C 579.903 233.625, 576.775 237, 577.050 237 C 577.325 237, 580.903 233.625, 585 229.500 C 589.097 225.375, 592.225 222, 591.950 222 C 591.675 222, 588.097 225.375, 584 229.500 M 485.487 250.750 C 493.179 258.587, 499.987 265, 500.614 265 C 501.242 265, 502.373 264.253, 503.128 263.339 C 504.384 261.819, 504.309 261.797, 502.252 263.078 C 500.104 264.416, 499.377 263.862, 485.752 250.489 L 471.500 236.500 485.487 250.750 M 486 399.537 C 472.589 401.616, 464.794 404.154, 453.112 410.243 C 434.611 419.889, 419.866 434.651, 410.187 453.219 C 391.592 488.893, 395.099 530.036, 419.499 562.455 C 432.963 580.344, 452.138 593.090, 475 599.345 C 513.500 609.878, 557.202 594.741, 581.501 562.455 C 605.901 530.036, 609.408 488.893, 590.813 453.219 C 581.134 434.651, 566.389 419.889, 547.888 410.243 C 535.954 404.022, 525.661 400.830, 511.678 399.015 C 501.963 397.754, 496.824 397.859, 486 399.537 M 226.500 462 C 247.395 482.900, 264.715 500, 264.990 500 C 265.265 500, 248.395 482.900, 227.500 462 C 206.605 441.100, 189.285 424, 189.010 424 C 188.735 424, 205.605 441.100, 226.500 462 M 773.495 462.250 L 735.500 500.500 773.750 462.505 C 794.788 441.608, 812 424.395, 812 424.255 C 812 423.550, 808.809 426.700, 773.495 462.250 M 702.500 485 C 694.264 493.250, 687.750 500, 688.025 500 C 688.300 500, 695.264 493.250, 703.500 485 C 711.736 476.750, 718.250 470, 717.975 470 C 717.700 470, 710.736 476.750, 702.500 485 M 226.495 539.250 L 188.500 577.500 226.750 539.505 C 262.300 504.191, 265.450 501, 264.745 501 C 264.605 501, 247.392 518.212, 226.495 539.250 M 304.477 509.250 L 296.500 517.500 304.750 509.523 C 309.288 505.136, 313 501.424, 313 501.273 C 313 500.544, 311.885 501.588, 304.477 509.250 M 705 518.500 C 714.613 528.125, 722.704 536, 722.979 536 C 723.254 536, 715.613 528.125, 706 518.500 C 696.387 508.875, 688.296 501, 688.021 501 C 687.746 501, 695.387 508.875, 705 518.500 M 774 539.500 C 795.170 560.675, 812.715 578, 812.990 578 C 813.265 578, 796.170 560.675, 775 539.500 C 753.830 518.325, 736.285 501, 736.010 501 C 735.735 501, 752.830 518.325, 774 539.500 M 486.985 748.750 L 474.500 761.500 487 749.362 C 493.875 742.686, 500.175 736.984, 501 736.691 C 502.323 736.221, 502.321 736.149, 500.985 736.079 C 500.152 736.036, 493.852 741.737, 486.985 748.750 M 424.488 763.250 L 408.500 779.500 424.750 763.512 C 433.688 754.718, 441 747.406, 441 747.262 C 441 746.548, 439.342 748.153, 424.488 763.250" stroke="none" fill="#b84ebe" fill-rule="evenodd"/><path d="M 0 500.001 L 0 1000.002 500.250 999.751 L 1000.500 999.500 1000.751 499.750 L 1001.002 0 500.501 0 L 0 0 0 500.001 M 0.496 500.500 C 0.496 775.500, 0.610 887.851, 0.750 750.168 C 0.890 612.486, 0.890 387.486, 0.750 250.168 C 0.610 112.851, 0.496 225.500, 0.496 500.500 M 188 305.755 L 188 423.510 226.500 462 L 265 500.490 226.500 539 L 188 577.509 188 695.255 L 188 813 305.755 813 L 423.510 813 461.500 775 C 482.395 754.100, 499.945 737, 500.500 737 C 501.055 737, 518.605 754.100, 539.500 775 L 577.490 813 695.245 813 L 813 813 813 695.245 L 813 577.490 774.500 539 L 736 500.510 774.500 462 L 813 423.491 813 305.745 L 813 188 695.245 188 L 577.490 188 539.500 226 C 518.605 246.900, 501.055 264, 500.500 264 C 499.945 264, 482.395 246.900, 461.500 226 L 423.510 188 305.755 188 L 188 188 188 305.755 M 222 315.489 L 222 408.978 267.500 454.440 C 292.525 479.444, 313 500.249, 313 500.673 C 313 501.097, 292.525 521.737, 267.500 546.538 L 222 591.631 222 685.316 L 222 779 315.254 779 L 408.508 779 454.286 733.500 C 479.464 708.475, 500.292 688, 500.571 688 C 500.850 688, 521.550 708.475, 546.571 733.500 L 592.065 779 685.532 779 L 779 779 779 685.467 L 779 591.935 733.498 546.717 C 708.472 521.848, 687.997 501.052, 687.998 500.504 C 687.999 499.956, 708.475 479.169, 733.500 454.309 L 779 409.111 779 315.555 L 779 222 685.674 222 L 592.348 222 554.297 259.750 C 533.368 280.512, 512.648 301.031, 508.252 305.348 L 500.259 313.195 454.380 267.600 L 408.500 222.004 315.250 222.002 L 222 222 222 315.489 M 486 399.537 C 472.589 401.616, 464.794 404.154, 453.112 410.243 C 434.611 419.889, 419.866 434.651, 410.187 453.219 C 391.592 488.893, 395.099 530.036, 419.499 562.455 C 432.963 580.344, 452.138 593.090, 475 599.345 C 513.500 609.878, 557.202 594.741, 581.501 562.455 C 605.901 530.036, 609.408 488.893, 590.813 453.219 C 581.134 434.651, 566.389 419.889, 547.888 410.243 C 535.954 404.022, 525.661 400.830, 511.678 399.015 C 501.963 397.754, 496.824 397.859, 486 399.537" stroke="none" fill="#080a16" fill-rule="evenodd"/></svg>