<svg xmlns="http://www.w3.org/2000/svg" width="1000" height="1000" viewBox="0 0 1000 1000" version="1.1"><path d="M 687 425.861 L 687 476.722 702.985 493.111 C 711.777 502.125, 718.977 509.848, 718.985 510.272 C 718.999 510.981, 711.306 519.208, 695.279 535.627 C 691.858 539.132, 688.591 542, 688.020 542 C 687.313 542, 687.065 558.636, 687.241 594.250 L 687.500 646.500 736.460 646.760 L 785.420 647.019 787.534 644.559 C 791.544 639.892, 810.509 619.618, 814 616.266 L 817.500 612.905 830 625.712 C 836.875 632.757, 844.190 640.432, 846.256 642.770 L 850.012 647.019 898.756 646.760 L 947.500 646.500 947.759 595.080 L 948.018 543.659 935.759 531.208 C 929.017 524.360, 921.813 517.047, 919.750 514.957 C 917.688 512.867, 916.006 510.784, 916.014 510.328 C 916.022 509.873, 923.222 502.126, 932.014 493.114 L 948 476.727 948 425.864 L 948 375 898.750 375.005 L 849.500 375.009 846.500 377.872 C 844.850 379.446, 837.891 386.644, 831.035 393.867 C 824.179 401.090, 818.072 407, 817.465 407 C 816.857 407, 811.216 401.523, 804.930 394.829 C 798.643 388.136, 791.848 380.936, 789.828 378.829 L 786.157 375 736.578 375 L 687 375 687 425.861 M 848.747 398 C 821.157 427.007, 816.055 431.528, 814.833 428.051 C 814.468 427.012, 788.925 399.962, 782.500 393.811 L 778.500 389.981 740.500 390.241 L 702.500 390.500 702.238 430.324 L 701.977 470.147 719.238 487.740 C 728.732 497.416, 737.288 506.158, 738.250 507.167 C 739.212 508.175, 739.996 509.562, 739.991 510.250 C 739.981 511.513, 731.494 520.699, 712.408 540.106 L 701.977 550.713 702.238 590.606 L 702.500 630.500 740.571 630.762 L 778.642 631.023 795.526 613.429 C 804.811 603.752, 813.157 594.972, 814.072 593.917 C 814.986 592.863, 816.435 592, 817.291 592 C 818.713 592, 841.915 614.885, 852.027 626.262 L 856.259 631.024 894.380 630.762 L 932.500 630.500 932.762 590.642 L 933.023 550.785 925.762 543.252 C 921.768 539.108, 916.250 533.357, 913.500 530.472 C 910.750 527.586, 905.462 522.050, 901.750 518.169 C 898.038 514.289, 895 510.685, 895 510.159 C 895 509.634, 898.263 505.860, 902.250 501.771 C 906.237 497.682, 914.788 488.815, 921.250 482.066 L 933 469.794 933 430.366 C 933 399.732, 932.721 390.836, 931.750 390.483 C 931.063 390.233, 913.925 389.910, 893.666 389.764 L 856.832 389.500 848.747 398" stroke="none" fill="#8f9cd6" fill-rule="evenodd"/><path d="M 807.552 466.536 C 806.481 467.347, 804.857 467.772, 803.944 467.482 C 803.030 467.192, 801.714 467.640, 801.019 468.477 C 800.324 469.315, 799.158 470, 798.428 470 C 796.899 470, 782.117 484.435, 780.250 487.752 C 779.563 488.974, 779 490.654, 779 491.486 C 779 492.319, 778.550 493, 778 493 C 777.450 493, 777 494.264, 777 495.809 C 777 497.354, 776.339 499.491, 775.532 500.559 C 773.444 503.319, 773.420 518.274, 775.500 520 C 776.325 520.685, 777 522.321, 777 523.636 C 777 524.951, 777.397 526.809, 777.883 527.764 C 778.369 528.719, 779.382 530.823, 780.133 532.441 C 780.885 534.059, 784.217 538.109, 787.537 541.441 C 793.767 547.693, 796.237 549.634, 799.250 550.646 C 800.212 550.969, 801 551.631, 801 552.117 C 801 552.602, 802.575 553, 804.500 553 C 806.425 553, 808 553.450, 808 554 C 808 554.596, 811.833 555, 817.500 555 C 823.167 555, 827 554.596, 827 554 C 827 553.450, 828.575 553, 830.500 553 C 832.425 553, 834 552.599, 834 552.108 C 834 551.618, 835.190 550.918, 836.645 550.553 C 838.099 550.188, 842.491 546.652, 846.405 542.695 C 853.725 535.295, 858 528.577, 858 524.477 C 858 523.193, 858.675 521.468, 859.500 520.643 C 860.626 519.517, 861 516.739, 861 509.512 C 861 504.098, 860.608 500.124, 860.105 500.435 C 859.095 501.059, 858 498.758, 858 496.013 C 858 493.456, 854.065 486.159, 850.500 482.104 C 843.972 474.679, 838.579 470, 836.551 470 C 835.763 470, 834.840 469.550, 834.500 469 C 834.160 468.450, 832.671 467.986, 831.191 467.968 C 829.711 467.951, 827.626 467.276, 826.559 466.468 C 823.895 464.453, 810.242 464.502, 807.552 466.536 M 293 481 L 293 493 311.500 493 L 330 493 330 481 L 330 469 311.500 469 L 293 469 293 481 M 595 481 L 595 493 613 493 L 631 493 631 481 L 631 469 613 469 L 595 469 595 481" stroke="none" fill="#b84ebe" fill-rule="evenodd"/><path d="M 807.552 466.536 C 806.481 467.347, 804.857 467.772, 803.944 467.482 C 803.030 467.192, 801.714 467.640, 801.019 468.477 C 800.324 469.315, 799.158 470, 798.428 470 C 796.899 470, 782.117 484.435, 780.250 487.752 C 779.563 488.974, 779 490.654, 779 491.486 C 779 492.319, 778.550 493, 778 493 C 777.450 493, 777 494.264, 777 495.809 C 777 497.354, 776.339 499.491, 775.532 500.559 C 773.444 503.319, 773.420 518.274, 775.500 520 C 776.325 520.685, 777 522.321, 777 523.636 C 777 524.951, 777.397 526.809, 777.883 527.764 C 778.369 528.719, 779.382 530.823, 780.133 532.441 C 780.885 534.059, 784.217 538.109, 787.537 541.441 C 793.767 547.693, 796.237 549.634, 799.250 550.646 C 800.212 550.969, 801 551.631, 801 552.117 C 801 552.602, 802.575 553, 804.500 553 C 806.425 553, 808 553.450, 808 554 C 808 554.596, 811.833 555, 817.500 555 C 823.167 555, 827 554.596, 827 554 C 827 553.450, 828.575 553, 830.500 553 C 832.425 553, 834 552.599, 834 552.108 C 834 551.618, 835.190 550.918, 836.645 550.553 C 838.099 550.188, 842.491 546.652, 846.405 542.695 C 853.725 535.295, 858 528.577, 858 524.477 C 858 523.193, 858.675 521.468, 859.500 520.643 C 860.626 519.517, 861 516.739, 861 509.512 C 861 504.098, 860.608 500.124, 860.105 500.435 C 859.095 501.059, 858 498.758, 858 496.013 C 858 493.456, 854.065 486.159, 850.500 482.104 C 843.972 474.679, 838.579 470, 836.551 470 C 835.763 470, 834.840 469.550, 834.500 469 C 834.160 468.450, 832.671 467.986, 831.191 467.968 C 829.711 467.951, 827.626 467.276, 826.559 466.468 C 823.895 464.453, 810.242 464.502, 807.552 466.536 M 293 481 L 293 493 311.500 493 L 330 493 330 481 L 330 469 311.500 469 L 293 469 293 481 M 595 481 L 595 493 613 493 L 631 493 631 481 L 631 469 613 469 L 595 469 595 481" stroke="none" fill="#b84ebe" fill-rule="evenodd"/><path d="M 84.009 467.715 C 78.789 467.917, 74.087 468.513, 73.559 469.041 C 73.032 469.568, 70.242 470, 67.359 470 C 64.476 470, 61.840 470.450, 61.500 471 C 61.160 471.550, 60 472, 58.921 472 C 57.843 472, 55.178 473.125, 53 474.500 C 50.822 475.875, 48.821 477, 48.554 477 C 47.247 477, 41.473 483.692, 39.372 487.644 C 37.615 490.949, 37 493.704, 37 498.269 C 37 504.323, 39.436 513, 41.136 513 C 41.611 513, 42 513.591, 42 514.313 C 42 516.038, 46.604 520.328, 51 522.699 C 54.091 524.367, 57.156 525.422, 69.571 529.092 C 71.260 529.591, 80.346 530, 89.762 530 C 100.097 530, 107.127 530.396, 107.500 531 C 107.840 531.550, 111.676 532, 116.025 532 C 126.347 532, 131.014 534.010, 130.968 538.435 C 130.931 541.988, 128.972 545, 126.699 545 C 125.829 545, 124.840 545.450, 124.500 546 C 124.121 546.614, 115.990 547, 103.441 547 C 90.480 547, 83 546.634, 83 546 C 83 545.450, 82.174 545, 81.165 545 C 78.636 545, 74.220 539.792, 73.825 536.343 L 73.500 533.500 54.500 533.500 L 35.500 533.500 35.664 536.500 C 35.882 540.476, 37.420 547.157, 38.575 549.140 C 41.888 554.831, 48.986 562.211, 52.886 564.021 C 54.324 564.688, 56.281 565.631, 57.236 566.117 C 58.191 566.603, 60.014 567, 61.286 567 C 62.559 567, 64.028 567.398, 64.550 567.883 C 67.195 570.343, 79.409 571.464, 103.500 571.459 C 127.647 571.454, 140.036 570.335, 142.450 567.942 C 142.972 567.424, 144.633 567, 146.141 567 C 147.649 567, 149.160 566.550, 149.500 566 C 149.840 565.450, 150.785 565, 151.601 565 C 153.268 565, 154.353 564.205, 160.477 558.500 C 167.029 552.396, 168.506 548.329, 168.467 536.500 C 168.435 526.682, 168.370 526.409, 164.896 521.500 C 162.950 518.750, 160.152 515.913, 158.679 515.195 C 157.205 514.478, 156 513.537, 156 513.105 C 156 512.674, 154.088 511.751, 151.750 511.056 C 149.412 510.361, 146.466 509.389, 145.203 508.896 C 143.940 508.403, 140.790 507.986, 138.203 507.968 C 135.616 507.951, 132.626 507.276, 131.559 506.468 C 129.995 505.285, 125.429 504.994, 108.059 504.967 C 90.215 504.940, 85.638 504.635, 81.500 503.195 C 74.779 500.856, 74 500.269, 74 497.550 C 74 493.279, 79.701 492.001, 98.770 491.995 C 118.013 491.989, 123.710 493.287, 127.253 498.483 C 131.084 504.101, 131.076 504.100, 148.470 503.372 C 158.296 502.961, 164.784 502.276, 165.235 501.601 C 167.744 497.841, 164.249 488.608, 157.720 481.750 C 155.233 479.137, 152.920 477, 152.579 477 C 152.239 477, 150.178 475.875, 148 474.500 C 145.822 473.125, 142.932 472, 141.579 472 C 140.225 472, 138.840 471.550, 138.500 471 C 138.160 470.450, 135.524 470, 132.641 470 C 129.758 470, 126.973 469.603, 126.450 469.117 C 125.345 468.089, 97.848 467.181, 84.009 467.715 M 390.500 494.700 C 387.750 495.530, 384.719 496.612, 383.764 497.104 C 382.809 497.597, 381.459 498.010, 380.764 498.022 C 380.069 498.034, 378.375 498.924, 377 500 C 373.615 502.648, 373 502.501, 373 499.045 C 373 496.500, 372.550 496.009, 369.750 495.498 C 367.962 495.172, 360.425 495.039, 353 495.203 L 339.500 495.500 339.240 544.274 L 338.981 593.048 355.740 592.774 L 372.500 592.500 372.761 578.500 C 373.077 561.505, 373.101 561.416, 376.742 563.317 C 380.478 565.267, 383.656 566.516, 389 568.136 C 395.053 569.971, 426.340 570.062, 428.151 568.250 C 428.838 567.563, 430.419 567, 431.665 567 C 437.871 567, 449.465 557.486, 453.687 548.928 C 458.509 539.155, 458.459 521.441, 453.585 512.757 C 451.025 508.195, 444.004 500.814, 440.829 499.345 C 429.115 493.926, 424.400 492.991, 409.312 493.096 C 400.129 493.159, 393.824 493.697, 390.500 494.700 M 522 494.159 C 520.625 494.726, 518.150 495.410, 516.500 495.678 C 514.850 495.946, 513.072 496.578, 512.550 497.083 C 512.028 497.587, 511.006 498, 510.280 498 C 509.554 498, 507.169 499.131, 504.980 500.513 L 501 503.025 501 499.532 C 501 496.687, 500.558 495.927, 498.622 495.441 C 494.391 494.379, 467.986 495.398, 467.212 496.653 C 466.820 497.287, 466.725 519.112, 467 545.153 L 467.500 592.500 484 592.500 L 500.500 592.500 500.775 576.218 L 501.050 559.936 504.369 562.468 C 506.195 563.861, 508.407 565, 509.285 565 C 510.163 565, 511.160 565.450, 511.500 566 C 511.840 566.550, 513.351 567, 514.859 567 C 516.367 567, 518.163 567.563, 518.851 568.250 C 519.758 569.157, 525.015 569.500, 538.001 569.500 C 550.988 569.500, 556.244 569.157, 557.150 568.250 C 557.838 567.563, 559.393 567, 560.608 567 C 566.282 567, 581 555.711, 581 551.359 C 581 550.612, 581.340 550, 581.755 550 C 584.867 550, 587.470 523.468, 584.816 518.799 C 584.097 517.535, 583.500 515.999, 583.489 515.387 C 583.479 514.775, 582.070 512.023, 580.359 509.271 C 577.499 504.670, 569.627 498, 567.056 498 C 566.460 498, 565.191 497.582, 564.236 497.072 C 558.679 494.103, 551.565 493.003, 538.312 493.063 C 530.715 493.098, 523.375 493.591, 522 494.159 M 233.026 495.075 C 230.015 495.610, 227.113 496.487, 226.576 497.024 C 226.039 497.561, 224.804 498, 223.830 498 C 221.939 498, 215.528 501.292, 212.919 503.604 C 210.816 505.466, 210 504.444, 210 499.950 C 210 496.941, 209.572 496.118, 207.750 495.630 C 204.774 494.833, 183.106 494.829, 179.125 495.625 L 176 496.250 176 532.508 L 176 568.767 178.250 569.370 C 181.174 570.153, 204.826 570.153, 207.750 569.370 C 209.980 568.772, 210 568.600, 210 550.442 C 210 540.323, 210.413 531.863, 210.923 531.548 C 211.431 531.234, 212.139 529.644, 212.497 528.016 C 212.854 526.387, 214.576 523.910, 216.324 522.512 C 218.071 521.114, 220.044 519.527, 220.708 518.985 C 222.454 517.561, 239.096 517.766, 242.297 519.250 C 243.841 519.965, 245.850 522.313, 246.997 524.739 C 248.788 528.530, 249 531.045, 249 548.514 L 249 568.050 251.565 569.025 C 254.346 570.082, 278.080 570.353, 281.750 569.370 L 284 568.767 284 542.442 C 284 525.972, 283.626 515.887, 283 515.500 C 282.450 515.160, 282 514.012, 282 512.949 C 282 511.887, 279.188 508.177, 275.750 504.707 C 270.924 499.834, 268.247 497.990, 264 496.614 C 257.467 494.498, 240.905 493.675, 233.026 495.075 M 294.667 496.667 C 294.300 497.033, 294 513.410, 294 533.060 C 294 564.715, 294.180 568.855, 295.582 569.393 C 298.273 570.426, 325.016 570.062, 327.066 568.965 C 328.921 567.972, 329 566.517, 329 533.547 C 329 514.636, 328.727 498.452, 328.393 497.582 C 327.874 496.229, 325.433 496, 311.560 496 C 302.635 496, 295.033 496.300, 294.667 496.667 M 595.868 502.250 C 595.795 505.688, 595.750 521.945, 595.767 538.378 C 595.791 562.360, 596.064 568.426, 597.149 569.113 C 598.996 570.283, 627.132 570.202, 629 569.021 C 630.280 568.212, 630.518 563.173, 630.625 534.606 C 630.693 516.199, 630.528 499.983, 630.258 498.570 L 629.767 496 612.883 496 L 596 496 595.868 502.250 M 394.500 514.565 C 392.850 515.337, 390.088 515.879, 388.362 515.769 C 386.636 515.659, 384.611 516.046, 383.862 516.629 C 383.113 517.213, 381.783 517.943, 380.906 518.253 C 380.030 518.563, 377.957 520.546, 376.299 522.659 C 373.697 525.976, 373.314 527.238, 373.494 531.916 C 373.688 536.952, 374.011 537.607, 378.101 541.237 C 384.379 546.809, 384.189 546.707, 389.586 547.442 C 398.318 548.633, 413 547.710, 413 545.971 C 413 545.511, 413.788 544.878, 414.750 544.563 C 418.136 543.457, 421.333 536.941, 421.333 531.147 C 421.333 525.066, 417.803 518, 414.764 518 C 413.794 518, 413 517.550, 413 517 C 413 516.450, 411.538 515.980, 409.750 515.956 C 407.962 515.932, 404.700 515.264, 402.500 514.471 C 397.823 512.786, 398.317 512.780, 394.500 514.565 M 525.410 513.990 C 524.865 514.535, 522.187 515.253, 519.460 515.585 C 507.138 517.088, 500.657 524.325, 502.558 534.458 C 503.707 540.583, 510.833 546.170, 519 547.350 C 520.925 547.628, 524.322 548.261, 526.548 548.757 C 529.571 549.429, 530.911 549.321, 531.838 548.329 C 532.520 547.598, 534.684 547, 536.646 547 C 543.339 547, 551 538.728, 551 531.500 C 551 524.313, 543.511 516.005, 537.022 515.994 C 535.085 515.990, 532.211 515.315, 530.636 514.494 C 527.256 512.731, 526.720 512.680, 525.410 513.990" stroke="none" fill="#ffffff" fill-rule="evenodd"/></svg>